<svg version="1.1" id="Layer_1" xmlns="http://www.w3.org/2000/svg" xmlns:xlink="http://www.w3.org/1999/xlink" x="0px" y="0px"
	 width="100%" viewBox="0 0 1194 957" enable-background="new 0 0 1194 957" xml:space="preserve">
<path fill="#000000" opacity="1.000000" stroke="none" 
	d="
M824.000000,958.000000 
	C549.365112,958.000000 275.230255,958.000000 1.047701,958.000000 
	C1.047701,639.068787 1.047701,320.137604 1.047701,1.103203 
	C398.885040,1.103203 796.770081,1.103203 1194.827637,1.103203 
	C1194.827637,319.999908 1194.827637,638.999939 1194.827637,958.000000 
	C1071.470581,958.000000 947.985291,958.000000 824.000000,958.000000 
M597.500000,166.956512 
	C541.674133,166.970154 485.843567,166.530502 430.023651,167.114044 
	C362.740173,167.817413 312.526611,232.396729 327.701263,297.815430 
	C339.072906,346.839172 381.019958,380.992310 431.388977,381.719208 
	C459.379089,382.123108 487.379669,381.755615 515.375183,381.839020 
	C551.260437,381.945923 577.193176,407.841125 577.311890,443.633392 
	C577.371582,461.630524 577.330383,479.628021 577.312073,497.625336 
	C577.310486,499.202972 577.139343,500.780426 577.039490,502.485291 
	C574.441162,502.485291 572.445068,502.484467 570.448914,502.485474 
	C523.789429,502.508911 477.121185,501.969238 430.472748,502.697906 
	C371.405823,503.620605 325.337250,551.020081 325.076813,610.094543 
	C324.954132,637.923157 324.970520,665.753296 325.124481,693.581604 
	C325.157532,699.552368 325.554871,705.610840 326.635468,711.472046 
	C336.438965,764.647949 379.567902,800.772583 433.604980,801.091248 
	C461.099945,801.253418 488.597534,801.241394 516.091919,801.035034 
	C523.056824,800.982788 530.117920,800.445801 536.958008,799.177917 
	C588.273071,789.665588 624.345276,745.553223 624.544922,692.020935 
	C624.713989,646.694946 624.580994,601.367920 624.581665,556.041321 
	C624.581665,554.086914 624.581665,552.132446 624.581665,549.584778 
	C626.985962,549.584778 628.937317,549.584778 630.888672,549.584778 
	C676.381897,549.584045 721.875305,549.658447 767.368286,549.564514 
	C829.729492,549.435730 876.811584,502.403595 876.950134,440.023071 
	C877.071594,385.364807 877.134705,330.705170 876.822876,276.048431 
	C876.769226,266.642090 875.700195,256.999512 873.415344,247.888565 
	C861.471130,200.260361 819.219116,167.251404 769.974182,167.031738 
	C712.817139,166.776779 655.658142,166.962234 597.500000,166.956512 
z"/>
<path fill="#FCFCFC" opacity="1.000000" stroke="none" 
	d="
M598.000000,166.956512 
	C655.658142,166.962234 712.817139,166.776779 769.974182,167.031738 
	C819.219116,167.251404 861.471130,200.260361 873.415344,247.888565 
	C875.700195,256.999512 876.769226,266.642090 876.822876,276.048431 
	C877.134705,330.705170 877.071594,385.364807 876.950134,440.023071 
	C876.811584,502.403595 829.729492,549.435730 767.368286,549.564514 
	C721.875305,549.658447 676.381897,549.584045 630.888672,549.584778 
	C628.937317,549.584778 626.985962,549.584778 624.581665,549.584778 
	C624.581665,552.132446 624.581665,554.086914 624.581665,556.041321 
	C624.580994,601.367920 624.713989,646.694946 624.544922,692.020935 
	C624.345276,745.553223 588.273071,789.665588 536.958008,799.177917 
	C530.117920,800.445801 523.056824,800.982788 516.091919,801.035034 
	C488.597534,801.241394 461.099945,801.253418 433.604980,801.091248 
	C379.567902,800.772583 336.438965,764.647949 326.635468,711.472046 
	C325.554871,705.610840 325.157532,699.552368 325.124481,693.581604 
	C324.970520,665.753296 324.954132,637.923157 325.076813,610.094543 
	C325.337250,551.020081 371.405823,503.620605 430.472748,502.697906 
	C477.121185,501.969238 523.789429,502.508911 570.448914,502.485474 
	C572.445068,502.484467 574.441162,502.485291 577.039490,502.485291 
	C577.139343,500.780426 577.310486,499.202972 577.312073,497.625336 
	C577.330383,479.628021 577.371582,461.630524 577.311890,443.633392 
	C577.193176,407.841125 551.260437,381.945923 515.375183,381.839020 
	C487.379669,381.755615 459.379089,382.123108 431.388977,381.719208 
	C381.019958,380.992310 339.072906,346.839172 327.701263,297.815430 
	C312.526611,232.396729 362.740173,167.817413 430.023651,167.114044 
	C485.843567,166.530502 541.674133,166.970154 598.000000,166.956512 
M604.205750,379.304657 
	C617.095093,397.279633 624.074829,417.304688 624.418945,439.432800 
	C624.716797,458.589630 624.536743,477.753845 624.587952,496.914703 
	C624.592651,498.672180 624.742188,500.429230 624.826172,502.222565 
	C626.238037,502.344604 627.055603,502.477020 627.873108,502.477112 
	C675.193787,502.481537 722.516846,502.763885 769.834351,502.372528 
	C803.952576,502.090363 829.666199,475.495483 829.754211,441.004852 
	C829.894897,385.853271 829.851562,330.700897 829.700256,275.549347 
	C829.684875,269.943115 829.015259,264.179657 827.600464,258.763092 
	C820.606812,231.988297 796.856384,214.079407 768.405273,214.056351 
	C682.594910,213.986832 596.784424,214.026688 510.973969,214.027115 
	C484.647675,214.027237 458.319183,213.825607 431.995636,214.096512 
	C398.094574,214.445419 371.130676,242.614380 372.198242,276.143555 
	C373.234711,308.695953 399.488373,334.337250 432.544891,334.644775 
	C460.201813,334.902069 487.863281,334.626251 515.522156,334.737732 
	C552.143677,334.885315 581.541504,349.673279 604.205750,379.304657 
M566.195007,728.605835 
	C573.947754,717.631104 577.398193,705.421143 577.365601,691.994629 
	C577.254639,646.184082 577.325012,600.372986 577.326172,554.562134 
	C577.326172,552.972046 577.326172,551.382019 577.326172,549.582520 
	C575.453613,549.582520 574.300720,549.582458 573.147888,549.582520 
	C526.504089,549.584839 479.860046,549.487427 433.216614,549.622498 
	C398.513519,549.723022 372.334564,576.069702 372.185303,610.892395 
	C372.068939,638.045227 372.080994,665.199280 372.182037,692.352295 
	C372.313446,727.660645 398.586151,753.872131 433.902435,753.970886 
	C461.055573,754.046753 488.209381,753.918152 515.362427,754.009155 
	C536.321533,754.079346 553.080627,745.803650 566.195007,728.605835 
z"/>
<path fill="#010101" opacity="1.000000" stroke="none" 
	d="
M604.005005,379.009888 
	C581.541504,349.673279 552.143677,334.885315 515.522156,334.737732 
	C487.863281,334.626251 460.201813,334.902069 432.544891,334.644775 
	C399.488373,334.337250 373.234711,308.695953 372.198242,276.143555 
	C371.130676,242.614380 398.094574,214.445419 431.995636,214.096512 
	C458.319183,213.825607 484.647675,214.027237 510.973969,214.027115 
	C596.784424,214.026688 682.594910,213.986832 768.405273,214.056351 
	C796.856384,214.079407 820.606812,231.988297 827.600464,258.763092 
	C829.015259,264.179657 829.684875,269.943115 829.700256,275.549347 
	C829.851562,330.700897 829.894897,385.853271 829.754211,441.004852 
	C829.666199,475.495483 803.952576,502.090363 769.834351,502.372528 
	C722.516846,502.763885 675.193787,502.481537 627.873108,502.477112 
	C627.055603,502.477020 626.238037,502.344604 624.826172,502.222565 
	C624.742188,500.429230 624.592651,498.672180 624.587952,496.914703 
	C624.536743,477.753845 624.716797,458.589630 624.418945,439.432800 
	C624.074829,417.304688 617.095093,397.279633 604.005005,379.009888 
z"/>
<path fill="#010101" opacity="1.000000" stroke="none" 
	d="
M565.994263,728.905334 
	C553.080627,745.803650 536.321533,754.079346 515.362427,754.009155 
	C488.209381,753.918152 461.055573,754.046753 433.902435,753.970886 
	C398.586151,753.872131 372.313446,727.660645 372.182037,692.352295 
	C372.080994,665.199280 372.068939,638.045227 372.185303,610.892395 
	C372.334564,576.069702 398.513519,549.723022 433.216614,549.622498 
	C479.860046,549.487427 526.504089,549.584839 573.147888,549.582520 
	C574.300720,549.582458 575.453613,549.582520 577.326172,549.582520 
	C577.326172,551.382019 577.326172,552.972046 577.326172,554.562134 
	C577.325012,600.372986 577.254639,646.184082 577.365601,691.994629 
	C577.398193,705.421143 573.947754,717.631104 565.994263,728.905334 
z"/>
</svg>